<svg width="383" height="87" viewBox="0 0 383 87" fill="none" xmlns="http://www.w3.org/2000/svg">
<g clip-path="url(#clip0_6081_410)">
<path fill-rule="evenodd" clip-rule="evenodd" d="M368.496 34.3225C368.328 32.4097 367.99 30.517 367.501 28.6601C366.965 26.6212 366.336 24.2888 365.784 22.3842C364.54 18.0888 359.485 17.0079 354.618 16.4632C352.612 16.2387 350.639 16.1359 348.703 16.035C345.942 15.8911 343.255 15.7512 340.657 15.2679C336.235 14.4457 334.052 13.0448 333.653 10.8032C333.254 8.56172 334.422 5.88813 337.602 5.15808C340.739 4.43789 349.064 2.53309 354.547 2.04458C355.327 1.93842 356.181 1.83219 357.118 1.71634C359.407 1.43353 362.962 1.3553 366.2 1.46072C369.641 1.48817 372.827 1.79126 374.659 2.66749C374.687 2.68098 374.715 2.69454 374.743 2.70819C377.219 3.6729 379.506 5.40824 380.976 8.22522C383.023 12.1468 382.576 22.5876 382.312 28.0785C382.048 33.5694 380.399 42.1424 379.78 45.346C379.162 48.5497 376.531 49.8098 374.276 49.4894C372.022 49.169 370.546 47.0362 369.57 42.6462C368.996 40.0658 368.763 37.3863 368.523 34.6319C368.514 34.5289 368.505 34.4258 368.496 34.3225Z" fill="#FD592C"/>
<path d="M5.80617 65.9526C2.14576 65.9526 0 63.7437 0 59.894V26.4775C0 22.6278 2.14576 20.4189 5.80617 20.4189H21.1736C30.1353 20.4189 35.5313 24.742 35.5313 31.7787C35.5313 36.8906 31.6815 40.9611 26.6327 41.6553V41.9078C32.786 42.1918 37.6455 46.7672 37.6455 52.8258C37.6455 60.8091 31.4922 65.9526 21.7416 65.9526H5.80617ZM11.5808 38.9732H17.5447C21.7416 38.9732 24.266 36.9852 24.266 33.7035C24.266 30.5165 21.994 28.6232 18.1127 28.6232H11.5808V38.9732ZM11.5808 57.7483H18.4598C23.2247 57.7483 25.8753 55.6657 25.8753 51.816C25.8753 48.0925 23.1616 46.0099 18.3967 46.0099H11.5808V57.7483Z" fill="white"/>
<path d="M58.3142 66.773C47.4907 66.773 40.7379 60.2096 40.7379 48.7552C40.7379 37.5217 47.6485 30.7689 58.3142 30.7689C69.043 30.7689 75.8905 37.4901 75.8905 48.7552C75.8905 60.2411 69.1377 66.773 58.3142 66.773ZM58.3142 58.5687C62.1324 58.5687 64.5621 55.0662 64.5621 48.7867C64.5621 42.602 62.1324 38.9732 58.3142 38.9732C54.5276 38.9732 52.0978 42.602 52.0978 48.7867C52.0978 55.0662 54.4644 58.5687 58.3142 58.5687Z" fill="white"/>
<path d="M96.7485 66.773C85.9251 66.773 79.1722 60.2096 79.1722 48.7552C79.1722 37.5217 86.0829 30.7689 96.7485 30.7689C107.477 30.7689 114.325 37.4901 114.325 48.7552C114.325 60.2411 107.572 66.773 96.7485 66.773ZM96.7485 58.5687C100.567 58.5687 102.996 55.0662 102.996 48.7867C102.996 42.602 100.567 38.9732 96.7485 38.9732C92.9619 38.9732 90.5322 42.602 90.5322 48.7867C90.5322 55.0662 92.8988 58.5687 96.7485 58.5687Z" fill="white"/>
<path d="M124.233 66.6783C120.951 66.6783 118.648 64.785 118.648 60.8722V36.5435C118.648 32.7253 120.888 30.8636 124.107 30.8636C127.294 30.8636 129.535 32.6938 129.535 36.5435V38.2159H129.755C131.112 33.7982 134.867 30.9267 139.569 30.9267C144.681 30.9267 148.152 33.5773 149.13 38.2474H149.351C150.677 33.8298 154.842 30.9267 159.954 30.9267C166.675 30.9267 171.251 35.6599 171.251 42.6335V60.8722C171.251 64.785 168.916 66.6783 165.634 66.6783C162.352 66.6783 160.048 64.785 160.048 60.8722V45.4735C160.048 41.8762 158.376 40.0145 155.221 40.0145C152.191 40.0145 150.298 42.1918 150.298 45.5681V60.8722C150.298 64.785 148.215 66.6783 144.933 66.6783C141.652 66.6783 139.601 64.785 139.601 60.8722V45.3473C139.601 41.9078 137.897 40.0145 134.836 40.0145C131.806 40.0145 129.85 42.2549 129.85 45.6313V60.8722C129.85 64.785 127.515 66.6783 124.233 66.6783Z" fill="white"/>
<path d="M193.024 66.773C182.011 66.773 175.479 60.1149 175.479 48.9445C175.479 37.8057 182.106 30.7689 192.582 30.7689C202.806 30.7689 209.527 37.5217 209.527 46.7988C209.527 49.6387 207.918 51.2165 205.015 51.2165H186.334V51.8476C186.334 56.0128 189.079 58.8527 193.118 58.8527C196.179 58.8527 198.293 57.8745 200.786 55.3501C201.954 54.2457 202.869 53.8671 204.257 53.8671C206.529 53.8671 208.454 55.3186 208.454 57.7799C208.454 58.6319 208.202 59.4838 207.697 60.3043C205.425 64.3433 199.871 66.773 193.024 66.773ZM186.492 44.8424H198.988C198.798 41.1189 196.306 38.7207 192.803 38.7207C189.332 38.7207 186.776 41.2451 186.492 44.8424Z" fill="white"/>
<path d="M219.499 66.6783C216.059 66.6783 213.882 64.6588 213.882 60.8722V36.4488C213.882 32.8516 216.091 30.8636 219.341 30.8636C222.465 30.8636 224.611 32.8516 224.611 36.4804V38.1843H224.831C225.683 33.5458 228.208 31.0845 231.647 31.0845C232.91 31.0845 233.919 31.3685 234.645 31.968C235.75 32.7884 236.318 34.2084 236.318 36.2279C236.318 37.995 235.781 39.3203 234.74 40.2354C233.699 41.182 232.121 41.6553 230.038 41.75C226.188 41.8447 225.084 43.5486 225.084 47.4614V60.8722C225.084 64.6588 222.907 66.6783 219.499 66.6783Z" fill="white"/>
<path d="M248.687 66.4575C242.282 66.4575 237.138 62.2291 237.138 56.0128C237.138 49.5756 242.092 45.9784 250.991 45.4419L259.037 44.9686V43.0122C259.037 40.2669 257.081 38.7523 254.146 38.7523C251.748 38.7523 250.423 39.4465 248.277 41.7816C246.983 43.0753 245.563 43.7064 243.859 43.7064C241.177 43.7064 239.284 42.034 239.284 39.6358C239.284 38.847 239.378 38.279 239.631 37.6163C241.082 33.3564 246.826 30.7689 254.714 30.7689C263.897 30.7689 269.987 35.4706 269.987 42.3811V61.0616C269.987 64.8797 267.684 66.6783 264.497 66.6783C261.53 66.6783 259.416 65.1321 259.101 61.8504V61.0616H258.88C257.018 64.5326 252.821 66.4575 248.687 66.4575ZM252.663 58.7581C256.071 58.7581 259.037 56.6754 259.037 53.6146V51.248L252.789 51.6582C249.855 51.8791 248.182 53.236 248.182 55.2555C248.182 57.4328 249.981 58.7581 252.663 58.7581Z" fill="white"/>
<path d="M280.968 66.6783C277.687 66.6783 275.352 64.785 275.352 60.8722V36.4804C275.352 32.9462 277.34 30.8636 280.779 30.8636C284.219 30.8636 286.459 32.9462 286.459 36.5119V37.8057H286.68C288.479 33.2618 291.823 30.9267 297.093 30.9267C304.761 30.9267 309.021 35.723 309.021 43.8957V60.8722C309.021 64.785 306.717 66.6783 303.436 66.6783C300.154 66.6783 297.85 64.785 297.85 60.8722V46.2939C297.85 42.3811 295.989 40.0461 292.328 40.0461C288.763 40.0461 286.554 42.7282 286.554 46.5148V60.8722C286.554 64.785 284.219 66.6783 280.968 66.6783Z" fill="white"/>
<path d="M330.384 78.8901C322.716 78.8585 317.289 76.0186 315.174 72.4529C314.638 71.5062 314.449 70.5596 314.449 69.6445C314.449 67.4356 316.153 65.7317 318.866 65.7317C320.223 65.7317 321.422 66.1419 322.527 67.0885C324.893 69.0765 327.292 70.4018 330.226 70.4334C334.833 70.4334 337.515 67.9721 337.515 64.0908V58.6003H337.295C335.938 62.2291 331.962 64.7219 326.913 64.7219C318.456 64.7219 313.249 58.3794 313.249 47.9663C313.249 37.2061 318.298 31.0845 327.071 31.0845C332.056 31.0845 335.811 33.7982 337.358 37.6479H337.579V36.4804C337.579 32.6307 340.008 30.8636 343.227 30.8636C346.446 30.8636 348.749 32.6307 348.749 36.4804V64.2802C348.749 73.5888 342.123 78.8901 330.384 78.8901ZM331.141 56.8017C335.149 56.8017 337.61 53.7093 337.61 48.1556C337.61 42.6651 335.117 39.2256 331.141 39.2256C327.134 39.2256 324.704 42.6335 324.704 48.1556C324.704 53.7093 327.102 56.8017 331.141 56.8017Z" fill="white"/>
</g>
<defs>
<clipPath id="clip0_6081_410">
<rect width="383" height="87" fill="white"/>
</clipPath>
</defs>
</svg>
