<?xml version="1.0" standalone="no"?>
<!DOCTYPE svg PUBLIC "-//W3C//DTD SVG 20010904//EN"
 "http://www.w3.org/TR/2001/REC-SVG-20010904/DTD/svg10.dtd">
<svg version="1.0" xmlns="http://www.w3.org/2000/svg"
 width="1080.000000pt" height="1080.000000pt" viewBox="0 0 1080.000000 1080.000000"
 preserveAspectRatio="xMidYMid meet">

<g transform="translate(0.000000,1080.000000) scale(0.100000,-0.100000)"
fill="#000000" stroke="none">
<path d="M0 5400 l0 -5400 5400 0 5400 0 0 5400 0 5400 -5400 0 -5400 0 0
-5400z m5650 3280 c404 -49 717 -139 1066 -305 450 -214 847 -529 1169 -930
211 -261 422 -649 538 -986 34 -96 99 -331 94 -334 -1 -1 -30 -12 -64 -24
-310 -114 -584 -432 -721 -836 -16 -49 -135 -441 -263 -870 -127 -429 -235
-783 -238 -787 -4 -5 -103 261 -220 590 -440 1232 -433 1212 -450 1212 -14 0
-79 -190 -322 -939 -167 -516 -305 -938 -306 -937 -2 2 -116 364 -254 807
-171 547 -252 819 -252 851 -1 77 58 138 134 138 19 0 29 5 29 15 0 13 -47 15
-365 15 -303 0 -365 -2 -365 -14 0 -9 16 -15 48 -18 100 -10 208 -82 250 -166
11 -20 169 -461 352 -979 l333 -943 -66 -134 c-112 -228 -269 -413 -415 -489
-96 -50 -162 -67 -264 -67 -68 0 -88 -3 -88 -14 0 -30 175 -44 290 -22 261 49
508 274 640 584 20 48 158 465 305 927 147 462 271 846 274 853 4 7 154 -400
341 -922 359 -1009 360 -1011 373 -868 4 37 18 112 31 167 24 99 643 1904 713
2079 98 247 249 482 379 592 55 46 158 114 172 114 23 0 61 -306 68 -555 29
-917 -320 -1791 -976 -2445 -464 -464 -1069 -782 -1720 -906 -267 -50 -659
-67 -917 -40 -653 70 -1214 290 -1708 671 -526 406 -915 951 -1120 1569 -122
366 -169 658 -169 1056 -1 258 9 371 50 600 95 525 327 1034 665 1461 112 142
419 445 561 554 536 412 1150 642 1838 689 93 6 460 -3 550 -14z"/>
<path d="M5070 8148 c0 -25 3 -73 6 -107 l7 -61 39 0 c88 0 149 59 133 130
-11 49 -48 74 -120 78 l-65 4 0 -44z m134 -20 c36 -51 2 -112 -57 -106 -32 3
-32 3 -35 66 l-3 62 40 0 c30 0 44 -6 55 -22z"/>
<path d="M4760 8143 c0 -24 33 -189 38 -195 4 -4 13 -4 19 0 9 6 9 30 -4 105
-14 82 -19 97 -35 97 -10 0 -18 -3 -18 -7z"/>
<path d="M5810 8037 c0 -100 1 -105 22 -110 12 -4 23 -5 24 -4 0 1 17 31 37
67 l37 65 0 -76 c0 -72 1 -77 23 -81 21 -4 30 6 74 86 35 62 48 93 40 98 -15
9 -23 1 -63 -69 l-33 -58 -1 78 c0 75 -1 77 -24 77 -20 0 -31 -12 -58 -61
l-33 -60 -5 73 c-4 59 -8 73 -22 76 -16 3 -18 -7 -18 -101z"/>
<path d="M4402 8047 c-45 -47 -18 -93 58 -99 37 -2 45 -6 45 -23 0 -14 -8 -21
-28 -23 -16 -2 -34 1 -40 7 -8 6 -18 6 -27 1 -12 -7 -11 -12 5 -30 25 -27 76
-22 111 11 46 43 23 89 -46 94 -62 4 -60 3 -60 24 0 24 36 37 56 20 21 -18 42
4 24 26 -19 23 -73 19 -98 -8z"/>
<path d="M6305 7890 c-64 -64 -76 -80 -61 -86 10 -4 25 1 36 11 19 17 22 17
59 0 29 -13 41 -24 43 -43 2 -14 9 -27 16 -30 18 -6 17 214 -2 221 -8 3 -45
-27 -91 -73z m75 -15 c0 -36 -12 -43 -40 -25 -12 7 -11 13 10 34 13 15 25 26
27 26 2 0 3 -16 3 -35z"/>
<path d="M6692 7754 c-27 -19 -52 -65 -52 -96 0 -51 69 -105 117 -93 32 8 24
29 -13 33 -82 10 -85 111 -4 137 25 8 70 -18 70 -40 0 -8 9 -15 20 -15 29 0
25 27 -9 61 -34 33 -91 40 -129 13z"/>
<path d="M7024 7503 c-26 -32 -54 -66 -63 -76 -11 -13 -12 -20 -3 -29 9 -9 19
-5 41 16 31 30 38 29 78 -7 l23 -20 -26 -35 c-20 -26 -24 -36 -14 -45 9 -9 21
-2 52 33 75 83 92 110 80 122 -9 9 -19 5 -41 -16 l-29 -28 -36 27 -35 27 25
34 c23 30 25 54 5 54 -5 0 -30 -26 -57 -57z"/>
<path d="M3818 7260 c-165 -28 -274 -85 -393 -204 -168 -169 -235 -336 -235
-579 0 -168 38 -285 133 -410 52 -69 111 -118 822 -679 88 -69 190 -153 227
-187 211 -194 332 -494 298 -739 -45 -320 -215 -541 -502 -652 -116 -45 -226
-64 -373 -64 -157 0 -241 17 -359 72 -162 76 -307 205 -381 337 -158 282 -121
694 90 999 44 65 46 70 29 83 -10 7 -21 13 -24 13 -6 0 -79 -89 -132 -161 -71
-97 -142 -278 -169 -436 -25 -145 10 -379 80 -529 120 -257 340 -430 650 -511
75 -20 130 -26 253 -30 387 -13 651 78 873 301 187 188 272 379 282 634 12
286 -58 505 -238 742 -85 114 -193 210 -555 495 -561 442 -611 483 -647 532
-76 105 -99 175 -98 310 0 157 48 276 153 381 106 107 224 152 393 152 244 0
432 -114 501 -306 13 -36 24 -80 24 -99 0 -46 9 -65 31 -65 18 0 19 11 19 248
0 136 -3 263 -6 284 l-6 36 -122 5 c-66 3 -168 12 -226 21 -110 16 -312 19
-392 6z"/>
<path d="M7334 7201 c-44 -27 -61 -79 -40 -120 19 -36 53 -61 83 -61 33 0 28
24 -7 37 -16 6 -35 23 -42 37 -10 23 -8 31 9 54 37 50 109 45 120 -9 6 -32 31
-46 40 -24 8 22 -15 72 -43 90 -32 21 -82 19 -120 -4z"/>
<path d="M7592 6871 c-88 -58 -86 -56 -78 -76 5 -15 10 -14 41 5 39 24 49 21
77 -28 l17 -29 -34 -19 c-35 -19 -44 -37 -24 -49 6 -4 49 18 95 50 71 47 83
59 73 71 -10 12 -16 11 -44 -6 -18 -11 -35 -20 -38 -20 -3 0 -15 17 -27 37
-23 40 -22 43 29 72 14 9 9 42 -6 40 -4 0 -41 -22 -81 -48z"/>
<path d="M7813 6492 c-45 -20 -85 -40 -89 -44 -3 -4 4 -32 17 -62 16 -39 28
-56 41 -56 23 0 23 2 -3 51 -11 23 -19 42 -17 44 2 1 13 7 24 13 19 10 23 7
39 -28 10 -22 24 -40 32 -40 17 0 17 12 -1 55 -14 32 -13 36 4 45 26 14 25 15
45 -30 18 -40 29 -48 40 -31 5 9 -39 122 -47 120 -2 0 -40 -17 -85 -37z"/>
</g>
</svg>
